<?xml version="1.0" encoding="UTF-8"?><svg id="Laag_2" xmlns="http://www.w3.org/2000/svg" viewBox="0 0 627.08 470.18"><defs><style>.cls-1{fill:none;opacity:.62;}.cls-2{fill:#1d1d1b;}</style></defs><g id="Laag_1-2"><rect class="cls-1" width="627.08" height="470.18"/><g id="Group_5"><g id="Group_1"><path id="Path_1" class="cls-2" d="M69.91,265.21l26.88,69.92h14.61l26.96-69.92h-13.08l-20.43,55.08h-.94l-20.58-55.08h-13.42Zm76.76,69.92h49.63v-11.28h-37.35v-18.63h34.03v-11.24h-34.03v-17.49h36.4v-11.28h-48.68v69.92Zm61.22,0h12.28v-27.26h12.32l17.63,27.26h14.88l-18.77-27.97c4.88-.88,9.31-3.42,12.51-7.2,3.1-3.79,4.73-8.57,4.6-13.46,.2-5.81-2.14-11.42-6.42-15.36-4.62-4.08-10.65-6.2-16.8-5.92h-32.23v69.92Zm12.28-38.25v-20.76h19.39c2.97-.16,5.9,.81,8.18,2.72,2.08,1.99,3.18,4.78,3.02,7.66,.16,2.88-.98,5.68-3.11,7.63-2.38,1.94-5.4,2.92-8.46,2.75h-19.01Zm55.48,38.25h45.83v-11.28h-33.56v-58.64h-12.28v69.92Zm56.29,0h12.28v-69.92h-12.28v69.92Zm27.14,0h11.47v-56.12h1.19l29.48,56.12h18.34v-69.91h-11.42v57.12h-1.29l-30.19-57.12h-17.59v69.92Zm75.39,0h24.6c11.44,0,20.35-3.14,26.73-9.41,6.38-6.27,9.58-14.78,9.58-25.53,0-10.71-3.15-19.22-9.46-25.52-6.3-6.3-15-9.46-26.09-9.46h-25.37v69.92Zm12.28-11.28v-47.35h12.8c7.71,0,13.5,2.09,17.37,6.26,3.87,4.17,5.81,9.99,5.81,17.44,0,7.39-2,13.19-6,17.37-4,4.19-9.99,6.28-17.99,6.28h-11.99Zm60.79,11.28h49.63v-11.28h-37.35v-18.63h34.04v-11.24h-34.04v-17.49h36.4v-11.28h-48.68v69.92Z"/></g><g id="Group_2"><path id="Path_2" class="cls-2" d="M151.38,238.05h32.43c7.58,0,13.38-1.78,17.4-5.33,4.02-3.56,6.23-8.74,6.02-14.1,.2-4.26-1.17-8.45-3.86-11.76-2.59-2.98-6.08-5.04-9.94-5.88v-.61c2.97-1.16,5.63-3,7.75-5.38,1.94-2.54,2.91-5.7,2.72-8.89,.21-5.03-1.94-9.88-5.81-13.11-3.87-3.24-9.14-4.86-15.81-4.86h-30.91v69.92Zm12.28-11.38v-19.39h20.57c2.78-.17,5.52,.73,7.66,2.51,1.91,1.9,2.9,4.53,2.72,7.21,.16,2.65-.82,5.25-2.7,7.13-2.13,1.81-4.89,2.72-7.68,2.54h-20.57Zm0-30.67v-16.59h18.44c2.44-.15,4.85,.59,6.78,2.09,1.68,1.55,2.57,3.78,2.42,6.07,.14,2.34-.76,4.62-2.47,6.23-1.89,1.55-4.29,2.34-6.73,2.2h-18.44Zm53.44,24.18c-.25,5.14,1.62,10.16,5.17,13.89,3.88,3.61,9.07,5.47,14.35,5.17,6.16,0,10.92-1.71,14.27-5.14,3.48-3.77,5.29-8.79,5.02-13.91v-52.04h-12.23v52.04c.12,2.01-.51,3.99-1.76,5.57-1.38,1.43-3.33,2.17-5.31,2.01-2.03,.14-4.03-.59-5.49-2.01-1.33-1.54-2.01-3.54-1.89-5.57v-9.29h-12.14v9.29Zm50.36-17.06c-.06,5.13,.85,10.23,2.68,15.03,1.62,4.3,4.15,8.19,7.42,11.42,3.24,3.12,7.07,5.54,11.27,7.13,4.53,1.72,9.34,2.58,14.18,2.54,6.36,.12,12.66-1.38,18.29-4.34,5.33-2.89,9.71-7.26,12.61-12.59,3.16-5.89,4.75-12.51,4.6-19.2,.06-5.11-.84-10.18-2.65-14.95-1.61-4.29-4.13-8.19-7.37-11.42-3.23-3.13-7.06-5.58-11.26-7.18-4.54-1.74-9.36-2.61-14.22-2.56-4.85-.05-9.66,.82-14.18,2.56-4.21,1.61-8.04,4.05-11.28,7.18-3.26,3.24-5.79,7.13-7.41,11.43-1.83,4.77-2.74,9.85-2.68,14.95m12.8,0c-.32-6.54,1.84-12.96,6.04-17.99,4.28-4.64,10.4-7.14,16.71-6.8,6.3-.34,12.42,2.16,16.69,6.8,4.19,5.03,6.34,11.45,6.02,17.99,0,7.46-2.01,13.45-6.02,17.97-4.01,4.52-9.58,6.78-16.68,6.78-6.3,.33-12.42-2.15-16.71-6.78-4.03-4.53-6.04-10.51-6.04-17.97m70.46,34.93h12.28v-27.26h12.32l17.63,27.26h14.88l-18.77-27.97c4.88-.88,9.31-3.42,12.51-7.2,3.1-3.79,4.73-8.57,4.6-13.46,.2-5.81-2.14-11.42-6.42-15.36-4.62-4.08-10.65-6.2-16.81-5.92h-32.23v69.91Zm12.28-38.25v-20.77h19.39c2.97-.16,5.9,.81,8.18,2.73,2.08,1.99,3.18,4.78,3.02,7.66,.16,2.88-.98,5.68-3.11,7.63-2.38,1.94-5.4,2.92-8.46,2.75h-19.02Zm55.48,38.25h11.47v-56.12h1.18l29.48,56.12h18.34v-69.92h-11.42v57.12h-1.28l-30.19-57.12h-17.59v69.92Z"/></g><g id="Group_3"><path id="Path_3" class="cls-2" d="M129.33,124c1.96,5.59,5.72,10.38,10.69,13.6,5.73,3.26,12.26,4.84,18.84,4.55,8.66,0,15.41-1.85,20.26-5.55,4.76-3.52,7.49-9.16,7.28-15.07,.28-5.45-1.69-10.78-5.47-14.72-3.65-3.62-8.93-5.82-15.86-6.61l-12.42-1.37c-2.6-.08-5.1-1.02-7.11-2.68-1.55-1.47-2.39-3.53-2.32-5.66-.03-2.62,1.24-5.08,3.39-6.57,2.81-1.85,6.14-2.74,9.5-2.53,7.71,0,12.87,3.37,15.46,10.1l11.94-4.22c-1.75-5.24-5.22-9.74-9.86-12.75-5.26-3.23-11.37-4.82-17.54-4.6-6.65-.28-13.18,1.86-18.37,6.03-4.54,3.57-7.18,9.04-7.15,14.81-.26,5.24,1.71,10.34,5.4,14.06,4.05,3.68,9.23,5.88,14.7,6.22l13.75,1.47c6.29,.7,9.43,3.7,9.43,9.01,.04,2.75-1.41,5.3-3.79,6.68-3.44,1.86-7.33,2.72-11.23,2.46-3.79,.13-7.53-.87-10.74-2.89-2.92-1.97-5.1-4.85-6.18-8.2l-12.61,4.41Zm62.12-41.67h23.32v58.64h12.23v-58.64h23.42v-11.28h-58.97v11.28Zm69.13,32.62c0,8.34,2.5,14.96,7.49,19.86,4.99,4.9,12.11,7.35,21.34,7.34,9.2,0,16.29-2.46,21.28-7.37,4.99-4.91,7.49-11.53,7.49-19.84v-43.89h-11.86v42.94c.27,4.37-1.24,8.66-4.19,11.9-2.8,2.81-7.04,4.22-12.72,4.22-5.66,0-9.84-1.4-12.54-4.2-2.88-3.28-4.34-7.57-4.06-11.92v-42.94h-12.24v43.9Zm71.79,26.02h24.6c11.44,0,20.35-3.14,26.73-9.41,6.38-6.27,9.58-14.78,9.57-25.53,0-10.71-3.15-19.22-9.46-25.52-6.3-6.3-15-9.46-26.1-9.46h-25.36v69.91Zm12.28-11.28v-47.35h12.8c7.71,0,13.5,2.09,17.37,6.26,3.87,4.17,5.81,9.99,5.81,17.44,0,7.39-2,13.19-6,17.37-4,4.19-9.99,6.28-17.99,6.28h-11.99Zm60.79,11.28h12.28V71.05h-12.28v69.92Zm24.43-34.93c-.06,5.13,.85,10.23,2.68,15.03,1.62,4.3,4.15,8.19,7.42,11.42,3.24,3.12,7.08,5.54,11.28,7.13,4.52,1.72,9.33,2.58,14.17,2.53,6.36,.12,12.66-1.37,18.29-4.34,5.34-2.88,9.72-7.26,12.61-12.59,3.16-5.9,4.75-12.51,4.6-19.2,.06-5.11-.84-10.18-2.65-14.95-1.61-4.29-4.13-8.19-7.37-11.42-3.23-3.13-7.06-5.58-11.26-7.18-4.54-1.74-9.36-2.61-14.22-2.56-4.84-.05-9.65,.82-14.17,2.56-4.21,1.61-8.04,4.05-11.28,7.18-3.26,3.24-5.79,7.13-7.42,11.42-1.83,4.77-2.74,9.85-2.68,14.95m12.8,0c-.32-6.54,1.84-12.96,6.04-17.99,4.28-4.64,10.4-7.14,16.71-6.8,7.11,0,12.67,2.27,16.68,6.8,4.19,5.03,6.34,11.45,6.02,17.99,0,7.46-2.01,13.45-6.02,17.97-4.01,4.52-9.57,6.78-16.68,6.78-6.3,.33-12.42-2.15-16.71-6.78-4.03-4.53-6.04-10.51-6.04-17.97"/></g><g id="Group_4"><path id="Path_4" class="cls-2" d="M207.01,387.09c-1.73-.66-2.43-1.47-2.43-2.77,0-1.59,1.32-2.83,3.52-2.83,1.86,.06,3.51,1.2,4.22,2.92l2.42-1.3c-1.11-2.71-3.78-4.44-6.7-4.36-3.27-.26-6.14,2.18-6.4,5.45,0,.08-.01,.16-.01,.24,0,2.43,1.32,4.13,4.21,5.26l3.93,1.53c2.22,.84,2.92,1.76,2.92,3.35,0,1.89-1.53,2.92-3.99,2.92-2.53,.15-4.8-1.57-5.34-4.04l-2.63,1.13c.96,3.59,4.36,5.97,8.06,5.66,4.48,0,6.87-2.57,6.87-5.69,.06-2.71-1.76-5.1-4.39-5.78l-4.28-1.68Zm19.23-5.37c2.57,0,3.93,1.32,3.93,3.5s-1.4,3.56-4.04,3.56h-4.65v-7.05h4.76Zm-.09,9.67c4.59,0,7.02-2.51,7.02-6.18s-2.42-6.12-6.81-6.12h-7.73v20.8h2.86v-8.48h4.68Zm22.04,8.48h3.12l-8.11-20.79h-2.87l-8.44,20.8h3.03l2.02-5.11h9.27l1.96,5.1Zm-6.49-16.8l3.55,9.1h-7.31l3.76-9.1Zm20.79-1.59c2.8-.03,5.35,1.61,6.5,4.16l2.51-1.47c-1.61-3.48-5.18-5.64-9.01-5.43-5.76-.06-10.48,4.55-10.54,10.31,0,.15,0,.29,0,.44-.21,5.72,4.26,10.53,9.98,10.74,.18,0,.37,0,.56,0,4.19,.28,8.04-2.31,9.36-6.3l-2.65-1.19c-.92,2.9-3.66,4.83-6.7,4.74-4.21-.05-7.58-3.5-7.53-7.7,0-.1,0-.2,0-.3-.22-4.19,2.99-7.77,7.18-7.99,.11,0,.22,0,.32-.01m12.39,18.4h12.07v-2.63h-9.2v-6.9h8.69v-2.63h-8.69v-6.01h8.95v-2.63h-11.81v20.79Zm28.8-18.54c1.21-.04,2.23,.91,2.27,2.12,0,.07,0,.15,0,.22,0,1.59-.92,2.4-2.89,3.32-1.01-1.16-1.76-1.99-1.76-3.24-.06-1.28,.92-2.36,2.2-2.42,.06,0,.13,0,.19,0m-1.27,18.89c2.33,.03,4.55-.97,6.06-2.74l1.99,2.39h3.47l-3.75-4.45c1.14-1.8,1.85-3.83,2.07-5.95h-2.65c-.14,1.35-.54,2.65-1.18,3.84l-3.9-4.53c2.77-1.27,4.07-2.8,4.07-5.11,.09-2.64-1.98-4.85-4.62-4.93-.09,0-.17,0-.26,0-2.73-.08-5.01,2.06-5.09,4.79,0,.04,0,.07,0,.11,.04,1.61,.69,3.14,1.83,4.28-2.65,.99-4.43,3.5-4.5,6.33,0,3.7,2.59,5.98,6.47,5.98Zm0-2.63c-1.83,.17-3.46-1.18-3.63-3.01-.01-.12-.02-.24-.01-.37,.03-1.99,1.3-3.75,3.18-4.42l4.85,5.72c-1.07,1.32-2.69,2.08-4.39,2.07m23.68-18.51h-3.24v20.8h2.68v-16.23l6.16,10.63h2.22l6.38-10.54v16.15h2.85v-20.79h-3.26l-6.96,11.72-6.85-11.73Zm35.79,20.8h3.12l-8.11-20.79h-2.87l-8.43,20.79h3.03l2.02-5.11h9.27l1.97,5.11Zm-6.51-16.81l3.55,9.1h-7.31l3.75-9.1Zm17.18-1.36h6.58v-2.63h-16v2.63h6.56v18.17h2.86v-18.17Zm17.73,0h6.58v-2.63h-15.99v2.63h6.56v18.17h2.85v-18.17Zm9.42,18.17h12.07v-2.63h-9.21v-6.9h8.69v-2.63h-8.69v-6.01h8.95v-2.63h-11.81v20.8Zm22.32-9.01l4.45,9.01h3.32l-4.88-9.5c2.54-.52,4.33-2.81,4.21-5.4,0-3.38-2.31-5.89-6.52-5.89h-7.36v20.79h2.85v-9.01h3.93Zm.46-9.16c2.4,0,3.64,1.21,3.64,3.27s-1.3,3.27-3.84,3.27h-4.18v-6.53h4.38Z"/></g></g></g></svg>