<svg width="25" height="10" viewBox="0 0 25 10" fill="none" xmlns="http://www.w3.org/2000/svg">
<path d="M0.421875 6.70898L2.34961 6.31055C2.5957 7.11133 3.2207 7.51172 4.22461 7.51172C4.74023 7.51172 5.12109 7.42383 5.36719 7.24805C5.61328 7.07227 5.73633 6.83594 5.73633 6.53906C5.73633 5.98438 5.38086 5.67188 4.66992 5.60156L3.20508 5.44922C2.40039 5.35938 1.77344 5.08984 1.32422 4.64062C0.875 4.19141 0.650391 3.59961 0.650391 2.86523C0.650391 2.09961 0.947266 1.4668 1.54102 0.966797C2.13867 0.466797 2.89648 0.216797 3.81445 0.216797C4.70898 0.216797 5.46094 0.416016 6.07031 0.814453C6.68359 1.20898 7.08008 1.78125 7.25977 2.53125L5.44922 2.91797C5.1875 2.20312 4.64258 1.8457 3.81445 1.8457C3.38867 1.8457 3.06055 1.9375 2.83008 2.12109C2.59961 2.30078 2.48438 2.53711 2.48438 2.83008C2.48438 3.08008 2.57031 3.2832 2.74219 3.43945C2.91406 3.5918 3.17188 3.68555 3.51562 3.7207L4.95703 3.89062C5.82031 3.99219 6.47266 4.26953 6.91406 4.72266C7.35938 5.17188 7.58203 5.77734 7.58203 6.53906C7.58203 7.35156 7.28516 7.99023 6.69141 8.45508C6.09766 8.91602 5.25977 9.14648 4.17773 9.14648C3.1543 9.14648 2.33398 8.94531 1.7168 8.54297C1.09961 8.14062 0.667969 7.5293 0.421875 6.70898ZM8.79492 9V0.357422H12.5859C13.4648 0.357422 14.1504 0.560547 14.6426 0.966797C15.1348 1.37305 15.3809 1.92188 15.3809 2.61328C15.3809 3.07422 15.2754 3.44141 15.0645 3.71484C14.8535 3.98828 14.5527 4.21094 14.1621 4.38281V4.45312C14.6543 4.57812 15.0488 4.82227 15.3457 5.18555C15.6426 5.54883 15.791 6.01953 15.791 6.59766C15.791 7.32812 15.543 7.91211 15.0469 8.34961C14.5547 8.7832 13.8262 9 12.8613 9H8.79492ZM10.6289 7.30664H12.8262C13.1699 7.30664 13.4375 7.21875 13.6289 7.04297C13.8242 6.86719 13.9219 6.62305 13.9219 6.31055C13.9219 5.99414 13.8262 5.75391 13.6348 5.58984C13.4434 5.42188 13.1738 5.33789 12.8262 5.33789H10.6289V7.30664ZM10.6289 3.76758H12.5156C12.8203 3.76758 13.0625 3.69336 13.2422 3.54492C13.4219 3.39648 13.5117 3.18359 13.5117 2.90625C13.5117 2.62891 13.4219 2.41797 13.2422 2.27344C13.0664 2.125 12.8242 2.05078 12.5156 2.05078H10.6289V3.76758ZM15.7734 0.357422H17.7891L20.0215 6.80273H20.1445L22.3594 0.357422H24.3047L21.0762 9H18.9668L15.7734 0.357422Z" fill="black"/>
</svg>
