<?xml version="1.0" encoding="UTF-8"?><svg id="Laag_1" xmlns="http://www.w3.org/2000/svg" viewBox="0 0 935.43 85.04"><defs><style>.cls-1{fill:none;opacity:.62;}.cls-2{fill:#1d1d1b;}</style></defs><g><g><path class="cls-2" d="M50.33,51.29c.76,2.19,2.04,3.89,3.83,5.08s4.01,1.79,6.65,1.79c3.07,0,5.39-.51,6.96-1.53s2.35-2.4,2.35-4.14c0-3.29-1.95-5.15-5.84-5.58l-8.52-.91c-3.84-.41-6.87-1.7-9.1-3.86s-3.35-5.07-3.35-8.71,1.47-6.68,4.42-9.18,6.74-3.74,11.38-3.74c4.35,0,7.97,.95,10.87,2.85s4.93,4.53,6.11,7.9l-7.4,2.61c-1.61-4.17-4.8-6.26-9.57-6.26-2.53,0-4.49,.52-5.89,1.57s-2.1,2.4-2.1,4.07c0,1.43,.48,2.6,1.44,3.51s2.43,1.46,4.41,1.66l7.69,.85c4.29,.49,7.56,1.86,9.82,4.1s3.39,5.28,3.39,9.12-1.5,7.05-4.51,9.34-7.19,3.44-12.56,3.44c-4.8,0-8.69-.94-11.67-2.82-2.99-1.88-5.19-4.69-6.62-8.43l7.81-2.73Z"/><path class="cls-2" d="M80.41,21.21h36.54v6.99h-14.51v36.33h-7.58V28.2h-14.45v-6.99Z"/><path class="cls-2" d="M122.64,21.21h7.58v26.61c0,3.19,.84,5.65,2.51,7.39s4.26,2.6,7.77,2.6,6.15-.87,7.89-2.61c1.73-1.74,2.6-4.2,2.6-7.37V21.21h7.34v27.2c0,5.15-1.55,9.25-4.64,12.29-3.09,3.04-7.49,4.57-13.19,4.57s-10.12-1.52-13.22-4.55-4.64-7.14-4.64-12.31V21.21Z"/><path class="cls-2" d="M166.52,21.21h15.71c6.87,0,12.26,1.95,16.17,5.86,3.91,3.91,5.86,9.18,5.86,15.82s-1.98,11.93-5.93,15.82c-3.96,3.89-9.48,5.83-16.56,5.83h-15.24V21.21Zm15.04,36.33c4.95,0,8.67-1.3,11.15-3.89s3.72-6.18,3.72-10.76-1.2-8.22-3.6-10.81-5.99-3.88-10.76-3.88h-7.93v29.34h7.43Z"/><path class="cls-2" d="M211.19,21.21h7.61v43.32h-7.61V21.21Z"/><path class="cls-2" d="M227.38,33.62c1.11-2.81,2.64-5.17,4.6-7.08s4.29-3.39,6.99-4.45,5.63-1.59,8.78-1.59,6.11,.53,8.81,1.59,5.03,2.54,6.98,4.45,3.47,4.27,4.57,7.08,1.64,5.9,1.64,9.27c0,4.52-.95,8.49-2.85,11.89s-4.5,6.01-7.81,7.8-7.09,2.69-11.34,2.69c-3.15,0-6.08-.52-8.78-1.57s-5.03-2.52-6.99-4.42-3.49-4.26-4.6-7.08c-1.11-2.82-1.66-5.92-1.66-9.31s.55-6.46,1.66-9.27Zm10.01,20.4c2.5,2.8,5.95,4.2,10.35,4.2s7.85-1.4,10.34-4.2,3.73-6.51,3.73-11.13-1.24-8.34-3.73-11.15-5.93-4.21-10.34-4.21-7.86,1.4-10.35,4.21-3.74,6.52-3.74,11.15,1.25,8.33,3.74,11.13Z"/><path class="cls-2" d="M291.75,21.21h19.15c4.13,0,7.4,1,9.79,3.01s3.6,4.71,3.6,8.12c0,2.33-.56,4.17-1.69,5.51s-2.73,2.45-4.8,3.33v.38c2.51,.59,4.56,1.8,6.15,3.64s2.39,4.27,2.39,7.28c0,3.62-1.24,6.53-3.73,8.74s-6.08,3.3-10.78,3.3h-20.09V21.21Zm19.03,17.27c1.76,0,3.15-.46,4.17-1.37s1.53-2.2,1.53-3.86-.5-2.9-1.5-3.76-2.4-1.29-4.2-1.29h-11.42v10.28h11.42Zm1.32,19c2.06,0,3.64-.52,4.76-1.57s1.67-2.52,1.67-4.42-.56-3.43-1.69-4.46-2.71-1.56-4.74-1.56h-12.75v12.01h12.75Z"/><path class="cls-2" d="M331.86,47.7h7.52v5.76c0,1.47,.39,2.62,1.17,3.45s1.92,1.25,3.41,1.25,2.56-.42,3.29-1.25,1.09-1.98,1.09-3.45V21.21h7.58V53.46c0,3.62-1.04,6.5-3.11,8.62s-5.02,3.19-8.84,3.19-6.76-1.07-8.9-3.2c-2.13-2.13-3.2-5-3.2-8.61v-5.76Z"/><path class="cls-2" d="M364.13,33.62c1.11-2.81,2.64-5.17,4.6-7.08s4.29-3.39,6.99-4.45,5.63-1.59,8.78-1.59,6.11,.53,8.81,1.59,5.03,2.54,6.98,4.45,3.47,4.27,4.57,7.08,1.64,5.9,1.64,9.27c0,4.52-.95,8.49-2.85,11.89s-4.5,6.01-7.81,7.8-7.09,2.69-11.34,2.69c-3.15,0-6.08-.52-8.78-1.57s-5.03-2.52-6.99-4.42-3.49-4.26-4.6-7.08-1.66-5.92-1.66-9.31,.55-6.46,1.66-9.27Zm10.01,20.4c2.5,2.8,5.95,4.2,10.35,4.2s7.85-1.4,10.34-4.2,3.73-6.51,3.73-11.13-1.24-8.34-3.73-11.15-5.93-4.21-10.34-4.21-7.86,1.4-10.35,4.21-3.74,6.52-3.74,11.15,1.25,8.33,3.74,11.13Z"/><path class="cls-2" d="M413.45,21.21h19.97c4.29,0,7.76,1.22,10.41,3.67s3.98,5.62,3.98,9.52c0,3.27-.95,6.05-2.85,8.34s-4.48,3.78-7.75,4.46l11.63,17.33h-9.22l-10.93-16.89h-7.64v16.89h-7.61V21.21Zm19.38,19.62c2.21,0,3.96-.57,5.24-1.7s1.92-2.71,1.92-4.73-.62-3.62-1.86-4.74-2.93-1.69-5.07-1.69h-12.01v12.86h11.78Z"/><path class="cls-2" d="M454.83,21.21h10.9l18.71,35.39h.79V21.21h7.08v43.32h-11.37l-18.27-34.77h-.73v34.77h-7.11V21.21Z"/><path class="cls-2" d="M520.21,21.21l12.75,34.13h.59l12.66-34.13h8.11l-16.71,43.32h-9.05l-16.65-43.32h8.31Z"/><path class="cls-2" d="M558.86,21.21h30.16v6.99h-22.56v10.84h21.09v6.96h-21.09v11.54h23.14v6.99h-30.75V21.21Z"/><path class="cls-2" d="M596.19,21.21h19.97c4.29,0,7.76,1.22,10.41,3.67,2.65,2.45,3.98,5.62,3.98,9.52,0,3.27-.95,6.05-2.85,8.34s-4.48,3.78-7.75,4.46l11.63,17.33h-9.22l-10.93-16.89h-7.64v16.89h-7.61V21.21Zm19.38,19.62c2.21,0,3.96-.57,5.24-1.7,1.28-1.14,1.92-2.71,1.92-4.73s-.62-3.62-1.86-4.74c-1.25-1.13-2.93-1.69-5.07-1.69h-12.01v12.86h11.78Z"/><path class="cls-2" d="M637.57,21.21h7.61V57.54h20.79v6.99h-28.4V21.21Z"/><path class="cls-2" d="M671.84,21.21h7.61v43.32h-7.61V21.21Z"/><path class="cls-2" d="M688.05,21.21h10.9l18.71,35.39h.79V21.21h7.08v43.32h-11.37l-18.27-34.77h-.73v34.77h-7.11V21.21Z"/><path class="cls-2" d="M734.16,21.21h15.71c6.87,0,12.26,1.95,16.17,5.86,3.91,3.91,5.86,9.18,5.86,15.82s-1.98,11.93-5.93,15.82-9.48,5.83-16.56,5.83h-15.24V21.21Zm15.04,36.33c4.95,0,8.67-1.3,11.14-3.89,2.48-2.59,3.72-6.18,3.72-10.76s-1.2-8.22-3.6-10.81c-2.4-2.58-5.99-3.88-10.76-3.88h-7.93v29.34h7.43Z"/><path class="cls-2" d="M778.83,21.21h30.16v6.99h-22.56v10.84h21.09v6.96h-21.09v11.54h23.14v6.99h-30.75V21.21Z"/></g><g><path class="cls-2" d="M831.12,45.55c.2,.57,.53,1,.99,1.31,.46,.31,1.04,.46,1.72,.46,.79,0,1.39-.13,1.8-.39,.4-.26,.61-.62,.61-1.07,0-.85-.51-1.33-1.51-1.44l-2.2-.23c-.99-.11-1.78-.44-2.35-1-.58-.56-.86-1.31-.86-2.25s.38-1.73,1.14-2.37,1.74-.97,2.94-.97c1.12,0,2.06,.24,2.81,.74,.75,.49,1.27,1.17,1.58,2.04l-1.91,.68c-.42-1.08-1.24-1.62-2.47-1.62-.65,0-1.16,.14-1.52,.41-.36,.27-.54,.62-.54,1.05,0,.37,.13,.67,.37,.91,.25,.24,.63,.38,1.14,.43l1.99,.22c1.11,.13,1.95,.48,2.54,1.06,.58,.58,.88,1.36,.88,2.36s-.39,1.82-1.16,2.41c-.78,.59-1.86,.89-3.24,.89-1.24,0-2.24-.24-3.02-.73s-1.34-1.21-1.71-2.18l2.02-.7Z"/><path class="cls-2" d="M839.99,37.78h5.1c1.11,0,2,.31,2.69,.94,.69,.63,1.03,1.44,1.03,2.45s-.35,1.83-1.04,2.46c-.69,.63-1.61,.94-2.75,.94h-3.06v4.4h-1.96v-11.19Zm4.95,5.04c.58,0,1.03-.14,1.35-.43,.33-.29,.49-.69,.49-1.21s-.16-.93-.48-1.22c-.32-.29-.75-.43-1.31-.43h-3.04v3.29h2.98Z"/><path class="cls-2" d="M852.09,37.78h2.33l4.16,11.19h-2.14l-.89-2.42h-4.68l-.87,2.42h-2.1l4.18-11.19Zm2.82,6.96l-1.62-4.48h-.16l-1.6,4.48h3.38Z"/><path class="cls-2" d="M859.43,40.99c.28-.73,.67-1.34,1.16-1.84,.49-.49,1.07-.88,1.74-1.15s1.39-.41,2.16-.41c1.38,0,2.51,.35,3.37,1.04,.87,.7,1.43,1.67,1.68,2.93l-1.97,.42c-.19-.8-.54-1.43-1.05-1.88-.51-.45-1.17-.68-1.98-.68-1.09,0-1.95,.35-2.56,1.05-.61,.7-.92,1.67-.92,2.91s.31,2.18,.93,2.88c.62,.7,1.47,1.05,2.55,1.05,.81,0,1.47-.21,1.98-.62,.5-.42,.87-1.05,1.1-1.91l1.93,.52c-.26,1.19-.82,2.13-1.69,2.82-.87,.69-1.99,1.03-3.37,1.03-.77,0-1.49-.14-2.16-.41-.67-.27-1.25-.65-1.74-1.14-.49-.49-.88-1.1-1.16-1.82-.28-.73-.42-1.53-.42-2.4s.14-1.67,.42-2.4Z"/><path class="cls-2" d="M871.13,37.78h7.79v1.81h-5.83v2.8h5.45v1.8h-5.45v2.98h5.98v1.81h-7.94v-11.19Z"/><path class="cls-2" d="M881.01,43.7c.45-.57,1.09-1.01,1.91-1.32-.33-.39-.56-.75-.7-1.08-.14-.33-.2-.69-.2-1.07,0-.77,.26-1.4,.79-1.9,.52-.5,1.2-.74,2.04-.74s1.52,.25,2.06,.75c.54,.5,.82,1.14,.82,1.9,0,.66-.2,1.2-.58,1.63-.39,.43-.96,.79-1.7,1.07l2.37,2.61c.29-.67,.44-1.43,.44-2.3h1.56c0,1.32-.31,2.47-.92,3.45l2.05,2.25h-2.03l-.99-1.08c-.97,.85-2.15,1.27-3.53,1.27-1.19,0-2.17-.32-2.93-.96-.76-.64-1.13-1.47-1.13-2.48,0-.78,.23-1.45,.68-2.02Zm1.58,3.45c.43,.38,1.02,.57,1.79,.57,1.05,0,1.91-.31,2.56-.92l-3.03-3.34-.08,.03c-.64,.22-1.12,.51-1.42,.87-.31,.36-.46,.81-.46,1.35,0,.57,.21,1.05,.64,1.43Zm1.19-6.16c.12,.22,.35,.52,.69,.89h.03c.59-.21,1-.42,1.25-.66,.24-.24,.37-.56,.37-.97,0-.36-.12-.66-.35-.89-.23-.23-.53-.34-.89-.34-.39,0-.7,.11-.93,.34-.23,.23-.34,.51-.34,.86,0,.29,.06,.55,.19,.77Z"/><path class="cls-2" d="M829.55,53.3h3.34l2.64,8.95h.19l2.63-8.95h3.35v11.19h-1.96v-8.98h-.22l-2.61,8.98h-2.65l-2.61-8.98h-.23v8.98h-1.87v-11.19Z"/><path class="cls-2" d="M847.04,53.3h2.33l4.16,11.19h-2.14l-.89-2.42h-4.68l-.87,2.42h-2.1l4.18-11.19Zm2.82,6.96l-1.62-4.48h-.16l-1.6,4.48h3.38Z"/><path class="cls-2" d="M851.87,53.3h9.44v1.81h-3.75v9.39h-1.96v-9.39h-3.73v-1.81Z"/><path class="cls-2" d="M862.37,53.3h9.44v1.81h-3.75v9.39h-1.96v-9.39h-3.73v-1.81Z"/><path class="cls-2" d="M873.37,53.3h7.79v1.81h-5.83v2.8h5.45v1.8h-5.45v2.98h5.98v1.81h-7.94v-11.19Z"/><path class="cls-2" d="M883,53.3h5.16c1.11,0,2,.32,2.69,.95,.69,.63,1.03,1.45,1.03,2.46,0,.84-.24,1.56-.73,2.15-.49,.59-1.16,.98-2,1.15l3.01,4.48h-2.38l-2.82-4.36h-1.97v4.36h-1.96v-11.19Zm5.01,5.07c.57,0,1.02-.15,1.35-.44,.33-.29,.5-.7,.5-1.22s-.16-.93-.48-1.23-.76-.44-1.31-.44h-3.1v3.32h3.04Z"/></g></g><rect class="cls-1" y="0" width="935.43" height="85.04"/></svg>